<mxfile host="app.diagrams.net" modified="2023-06-21T11:42:09.718Z" agent="Mozilla/5.0 (Windows NT 10.0; Win64; x64) AppleWebKit/537.36 (KHTML, like Gecko) Chrome/114.0.0.0 Safari/537.36 Edg/114.0.1823.51" etag="B3uWHD2wTi1K52PAvvFU" version="21.4.0" type="github">
  <diagram name="Page-1" id="U5W08HpKNUjpSv7VuyZv">
    <mxGraphModel dx="616" dy="385" grid="1" gridSize="10" guides="1" tooltips="1" connect="1" arrows="1" fold="1" page="1" pageScale="1" pageWidth="827" pageHeight="1169" math="1" shadow="0">
      <root>
        <mxCell id="0" />
        <mxCell id="1" parent="0" />
        <mxCell id="kBsMInZ9iSFbnhelbPA1-1" value="" style="shape=waypoint;sketch=0;fillStyle=solid;size=6;pointerEvents=1;points=[];fillColor=none;resizable=0;rotatable=0;perimeter=centerPerimeter;snapToPoint=1;" vertex="1" parent="1">
          <mxGeometry x="112" y="209.5" width="20" height="20" as="geometry" />
        </mxCell>
        <mxCell id="kBsMInZ9iSFbnhelbPA1-2" value="" style="shape=waypoint;sketch=0;fillStyle=solid;size=6;pointerEvents=1;points=[];fillColor=none;resizable=0;rotatable=0;perimeter=centerPerimeter;snapToPoint=1;" vertex="1" parent="1">
          <mxGeometry x="112" y="188.5" width="20" height="20" as="geometry" />
        </mxCell>
        <mxCell id="kBsMInZ9iSFbnhelbPA1-3" value="" style="endArrow=classic;html=1;rounded=0;" edge="1" parent="1">
          <mxGeometry width="50" height="50" relative="1" as="geometry">
            <mxPoint x="151" y="220" as="sourcePoint" />
            <mxPoint x="201" y="220" as="targetPoint" />
          </mxGeometry>
        </mxCell>
        <mxCell id="kBsMInZ9iSFbnhelbPA1-4" value="" style="endArrow=none;html=1;rounded=0;" edge="1" source="kBsMInZ9iSFbnhelbPA1-5" target="kBsMInZ9iSFbnhelbPA1-2" parent="1">
          <mxGeometry width="50" height="50" relative="1" as="geometry">
            <mxPoint x="142" y="220" as="sourcePoint" />
            <mxPoint x="72" y="230" as="targetPoint" />
          </mxGeometry>
        </mxCell>
        <mxCell id="kBsMInZ9iSFbnhelbPA1-5" value="" style="shape=waypoint;sketch=0;fillStyle=solid;size=6;pointerEvents=1;points=[];fillColor=none;resizable=0;rotatable=0;perimeter=centerPerimeter;snapToPoint=1;" vertex="1" parent="1">
          <mxGeometry x="142" y="209.5" width="20" height="20" as="geometry" />
        </mxCell>
        <mxCell id="kBsMInZ9iSFbnhelbPA1-6" value="" style="endArrow=classic;html=1;rounded=0;" edge="1" parent="1">
          <mxGeometry width="50" height="50" relative="1" as="geometry">
            <mxPoint x="141" y="179" as="sourcePoint" />
            <mxPoint x="141" y="209" as="targetPoint" />
          </mxGeometry>
        </mxCell>
        <mxCell id="kBsMInZ9iSFbnhelbPA1-7" value="$$Mode$$" style="text;html=1;align=center;verticalAlign=middle;resizable=0;points=[];autosize=1;strokeColor=none;fillColor=none;" vertex="1" parent="1">
          <mxGeometry x="107" y="150" width="80" height="30" as="geometry" />
        </mxCell>
        <mxCell id="kBsMInZ9iSFbnhelbPA1-8" value="" style="whiteSpace=wrap;html=1;aspect=fixed;" vertex="1" parent="1">
          <mxGeometry x="200" y="200" width="40" height="40" as="geometry" />
        </mxCell>
        <mxCell id="kBsMInZ9iSFbnhelbPA1-9" value="" style="endArrow=none;html=1;rounded=0;" edge="1" parent="1">
          <mxGeometry width="50" height="50" relative="1" as="geometry">
            <mxPoint x="220" y="204.8" as="sourcePoint" />
            <mxPoint x="240" y="204.8" as="targetPoint" />
          </mxGeometry>
        </mxCell>
        <mxCell id="kBsMInZ9iSFbnhelbPA1-10" value="" style="endArrow=none;html=1;rounded=0;" edge="1" parent="1">
          <mxGeometry width="50" height="50" relative="1" as="geometry">
            <mxPoint x="220" y="234.8" as="sourcePoint" />
            <mxPoint x="220" y="204.8" as="targetPoint" />
          </mxGeometry>
        </mxCell>
        <mxCell id="kBsMInZ9iSFbnhelbPA1-11" value="" style="endArrow=none;html=1;rounded=0;" edge="1" parent="1">
          <mxGeometry width="50" height="50" relative="1" as="geometry">
            <mxPoint x="220" y="234.8" as="sourcePoint" />
            <mxPoint x="200" y="234.8" as="targetPoint" />
          </mxGeometry>
        </mxCell>
        <mxCell id="kBsMInZ9iSFbnhelbPA1-13" value="" style="endArrow=classic;html=1;rounded=0;exitX=1;exitY=0.5;exitDx=0;exitDy=0;" edge="1" parent="1" source="kBsMInZ9iSFbnhelbPA1-8">
          <mxGeometry width="50" height="50" relative="1" as="geometry">
            <mxPoint x="360" y="270" as="sourcePoint" />
            <mxPoint x="280" y="220" as="targetPoint" />
          </mxGeometry>
        </mxCell>
        <mxCell id="kBsMInZ9iSFbnhelbPA1-15" value="" style="whiteSpace=wrap;html=1;aspect=fixed;" vertex="1" parent="1">
          <mxGeometry x="280" y="200" width="40" height="40" as="geometry" />
        </mxCell>
        <mxCell id="kBsMInZ9iSFbnhelbPA1-16" value="" style="endArrow=none;html=1;rounded=0;" edge="1" parent="1">
          <mxGeometry width="50" height="50" relative="1" as="geometry">
            <mxPoint x="300" y="204.8" as="sourcePoint" />
            <mxPoint x="320" y="204.8" as="targetPoint" />
          </mxGeometry>
        </mxCell>
        <mxCell id="kBsMInZ9iSFbnhelbPA1-17" value="" style="endArrow=none;html=1;rounded=0;" edge="1" parent="1">
          <mxGeometry width="50" height="50" relative="1" as="geometry">
            <mxPoint x="300" y="234.8" as="sourcePoint" />
            <mxPoint x="300" y="204.8" as="targetPoint" />
          </mxGeometry>
        </mxCell>
        <mxCell id="kBsMInZ9iSFbnhelbPA1-18" value="" style="endArrow=none;html=1;rounded=0;" edge="1" parent="1">
          <mxGeometry width="50" height="50" relative="1" as="geometry">
            <mxPoint x="300" y="234.8" as="sourcePoint" />
            <mxPoint x="280" y="234.8" as="targetPoint" />
          </mxGeometry>
        </mxCell>
        <mxCell id="kBsMInZ9iSFbnhelbPA1-23" value="" style="endArrow=classic;html=1;rounded=0;exitX=1;exitY=0.5;exitDx=0;exitDy=0;" edge="1" parent="1">
          <mxGeometry width="50" height="50" relative="1" as="geometry">
            <mxPoint x="319" y="220" as="sourcePoint" />
            <mxPoint x="359" y="220" as="targetPoint" />
          </mxGeometry>
        </mxCell>
        <mxCell id="kBsMInZ9iSFbnhelbPA1-24" value="" style="whiteSpace=wrap;html=1;aspect=fixed;" vertex="1" parent="1">
          <mxGeometry x="359" y="200" width="40" height="40" as="geometry" />
        </mxCell>
        <mxCell id="kBsMInZ9iSFbnhelbPA1-25" value="" style="endArrow=none;html=1;rounded=0;" edge="1" parent="1">
          <mxGeometry width="50" height="50" relative="1" as="geometry">
            <mxPoint x="379" y="204.8" as="sourcePoint" />
            <mxPoint x="399" y="204.8" as="targetPoint" />
          </mxGeometry>
        </mxCell>
        <mxCell id="kBsMInZ9iSFbnhelbPA1-26" value="" style="endArrow=none;html=1;rounded=0;" edge="1" parent="1">
          <mxGeometry width="50" height="50" relative="1" as="geometry">
            <mxPoint x="379" y="234.8" as="sourcePoint" />
            <mxPoint x="379" y="204.8" as="targetPoint" />
          </mxGeometry>
        </mxCell>
        <mxCell id="kBsMInZ9iSFbnhelbPA1-27" value="" style="endArrow=none;html=1;rounded=0;" edge="1" parent="1">
          <mxGeometry width="50" height="50" relative="1" as="geometry">
            <mxPoint x="379" y="234.8" as="sourcePoint" />
            <mxPoint x="359" y="234.8" as="targetPoint" />
          </mxGeometry>
        </mxCell>
        <mxCell id="kBsMInZ9iSFbnhelbPA1-28" value="" style="endArrow=classic;html=1;rounded=0;" edge="1" parent="1">
          <mxGeometry width="50" height="50" relative="1" as="geometry">
            <mxPoint x="299.58" y="320" as="sourcePoint" />
            <mxPoint x="299.58" y="280" as="targetPoint" />
          </mxGeometry>
        </mxCell>
        <mxCell id="kBsMInZ9iSFbnhelbPA1-29" value="" style="endArrow=classic;html=1;rounded=0;" edge="1" parent="1">
          <mxGeometry width="50" height="50" relative="1" as="geometry">
            <mxPoint x="378.58" y="320" as="sourcePoint" />
            <mxPoint x="378.58" y="280" as="targetPoint" />
          </mxGeometry>
        </mxCell>
        <mxCell id="kBsMInZ9iSFbnhelbPA1-30" value="" style="endArrow=classic;html=1;rounded=0;" edge="1" parent="1">
          <mxGeometry width="50" height="50" relative="1" as="geometry">
            <mxPoint x="80" y="199" as="sourcePoint" />
            <mxPoint x="122" y="199" as="targetPoint" />
          </mxGeometry>
        </mxCell>
        <mxCell id="kBsMInZ9iSFbnhelbPA1-31" value="" style="endArrow=classic;html=1;rounded=0;" edge="1" parent="1">
          <mxGeometry width="50" height="50" relative="1" as="geometry">
            <mxPoint x="79" y="219" as="sourcePoint" />
            <mxPoint x="121" y="219" as="targetPoint" />
          </mxGeometry>
        </mxCell>
        <mxCell id="kBsMInZ9iSFbnhelbPA1-32" value="$$Q^*_u$$" style="text;html=1;align=center;verticalAlign=middle;resizable=0;points=[];autosize=1;strokeColor=none;fillColor=none;" vertex="1" parent="1">
          <mxGeometry x="17" y="183.5" width="80" height="30" as="geometry" />
        </mxCell>
        <mxCell id="kBsMInZ9iSFbnhelbPA1-33" value="$$Q^*_q$$" style="text;html=1;align=center;verticalAlign=middle;resizable=0;points=[];autosize=1;strokeColor=none;fillColor=none;" vertex="1" parent="1">
          <mxGeometry x="17" y="204.5" width="80" height="30" as="geometry" />
        </mxCell>
        <mxCell id="kBsMInZ9iSFbnhelbPA1-34" value="$$Q^{OP}_{min}$$" style="text;html=1;align=center;verticalAlign=middle;resizable=0;points=[];autosize=1;strokeColor=none;fillColor=none;" vertex="1" parent="1">
          <mxGeometry x="160" y="240" width="120" height="30" as="geometry" />
        </mxCell>
        <mxCell id="kBsMInZ9iSFbnhelbPA1-35" value="$$Q^{OP}_{max}$$" style="text;html=1;align=center;verticalAlign=middle;resizable=0;points=[];autosize=1;strokeColor=none;fillColor=none;" vertex="1" parent="1">
          <mxGeometry x="155" y="170" width="130" height="30" as="geometry" />
        </mxCell>
        <mxCell id="kBsMInZ9iSFbnhelbPA1-36" value="$$Q^{P}_{max}$$" style="text;html=1;align=center;verticalAlign=middle;resizable=0;points=[];autosize=1;strokeColor=none;fillColor=none;" vertex="1" parent="1">
          <mxGeometry x="240" y="170" width="120" height="30" as="geometry" />
        </mxCell>
        <mxCell id="kBsMInZ9iSFbnhelbPA1-37" value="$$Q^{P}_{min}$$" style="text;html=1;align=center;verticalAlign=middle;resizable=0;points=[];autosize=1;strokeColor=none;fillColor=none;" vertex="1" parent="1">
          <mxGeometry x="240" y="240" width="120" height="30" as="geometry" />
        </mxCell>
        <mxCell id="kBsMInZ9iSFbnhelbPA1-39" value="$$P$$" style="text;html=1;align=center;verticalAlign=middle;resizable=0;points=[];autosize=1;strokeColor=none;fillColor=none;" vertex="1" parent="1">
          <mxGeometry x="270" y="320" width="60" height="30" as="geometry" />
        </mxCell>
        <mxCell id="kBsMInZ9iSFbnhelbPA1-40" value="$$Q^{U}_{min}$$" style="text;html=1;align=center;verticalAlign=middle;resizable=0;points=[];autosize=1;strokeColor=none;fillColor=none;" vertex="1" parent="1">
          <mxGeometry x="320" y="240" width="120" height="30" as="geometry" />
        </mxCell>
        <mxCell id="kBsMInZ9iSFbnhelbPA1-41" value="$$Q^{U}_{max}$$" style="text;html=1;align=center;verticalAlign=middle;resizable=0;points=[];autosize=1;strokeColor=none;fillColor=none;" vertex="1" parent="1">
          <mxGeometry x="320" y="170" width="120" height="30" as="geometry" />
        </mxCell>
        <mxCell id="kBsMInZ9iSFbnhelbPA1-42" value="$$U$$" style="text;html=1;align=center;verticalAlign=middle;resizable=0;points=[];autosize=1;strokeColor=none;fillColor=none;" vertex="1" parent="1">
          <mxGeometry x="349" y="320" width="60" height="30" as="geometry" />
        </mxCell>
        <mxCell id="kBsMInZ9iSFbnhelbPA1-43" value="" style="endArrow=classic;html=1;rounded=0;" edge="1" parent="1">
          <mxGeometry width="50" height="50" relative="1" as="geometry">
            <mxPoint x="400" y="220" as="sourcePoint" />
            <mxPoint x="440" y="220" as="targetPoint" />
          </mxGeometry>
        </mxCell>
        <mxCell id="kBsMInZ9iSFbnhelbPA1-44" value="$$Q^*_{lim}$$" style="text;html=1;align=center;verticalAlign=middle;resizable=0;points=[];autosize=1;strokeColor=none;fillColor=none;" vertex="1" parent="1">
          <mxGeometry x="410" y="205" width="100" height="30" as="geometry" />
        </mxCell>
      </root>
    </mxGraphModel>
  </diagram>
</mxfile>
